<?xml version="1.0" standalone="no"?><!DOCTYPE svg PUBLIC "-//W3C//DTD SVG 1.1//EN" "http://www.w3.org/Graphics/SVG/1.1/DTD/svg11.dtd"><svg t="1603541769274" class="icon" viewBox="0 0 1024 1024" version="1.1" xmlns="http://www.w3.org/2000/svg" p-id="3736" xmlns:xlink="http://www.w3.org/1999/xlink" width="200" height="200"><defs><style type="text/css"></style></defs><path d="M922.4 1020H168c-8.8 0-16-7.2-16-16V20c0-8.8 7.2-16 16-16h755.2c8.8 0 16 7.2 16 16v984c-0.8 8.8-8 16-16.8 16z m-738.4-32h723.2V36H184v952z" p-id="3737"></path><path d="M824 1020H168c-8.8 0-16-7.2-16-16V20c0-8.8 7.2-16 16-16h656c8.8 0 16 7.2 16 16s-7.2 16-16 16H184v952h640c8.8 0 16 7.2 16 16s-7.2 16-16 16z" p-id="3738"></path><path d="M234.4 180.8H101.6c-8.8 0-16-7.2-16-16s7.2-16 16-16h132.8c8.8 0 16 7.2 16 16s-7.2 16-16 16zM234.4 304H101.6c-8.8 0-16-7.2-16-16s7.2-16 16-16h132.8c8.8 0 16 7.2 16 16s-7.2 16-16 16zM234.4 752H101.6c-8.8 0-16-7.2-16-16s7.2-16 16-16h132.8c8.8 0 16 7.2 16 16s-7.2 16-16 16zM234.4 875.2H101.6c-8.8 0-16-7.2-16-16s7.2-16 16-16h132.8c8.8 0 16 7.2 16 16s-7.2 16-16 16zM922.4 317.6H824c-4.8 0-8-3.2-8-8V166.4c0-4.8 3.2-8 8-8h98.4c4.8 0 8 3.2 8 8v142.4c0 4.8-3.2 8.8-8 8.8z m-90.4-16h82.4V174.4H832v127.2zM922.4 602.4H824c-4.8 0-8-3.2-8-8V452c0-4.8 3.2-8 8-8h98.4c4.8 0 8 3.2 8 8v142.4c0 4.8-3.2 8-8 8z m-90.4-16h82.4V460H832v126.4z" p-id="3739"></path><path d="M824 1012c-4.8 0-8-3.2-8-8V20c0-4.8 3.2-8 8-8s8 3.2 8 8v984c0 4.8-3.2 8-8 8z" p-id="3740"></path></svg>